<svg viewBox="0 0 104.64 103.41" xmlns="http://www.w3.org/2000/svg">
    <path
        d="m90.95 78.64c2.23-3.19 4.1-6.65 5.55-10.31.3-.77.6-1.58.88-2.42 1.68-4.99 2.59-10.33 2.59-15.89v-.07c0-13.79-5.6-26.27-14.63-35.3-9.04-9.04-21.54-14.64-35.34-14.65s-.02 0-.02 0h-.03c-13.79.02-26.27 5.61-35.3 14.63-9.04 9.05-14.64 21.54-14.65 35.34v.05c0 13.78 5.6 26.27 14.63 35.3 9.04 9.04 21.54 14.64 35.34 14.64s.02 0 .02 0c8 0 15.57-1.89 22.27-5.23 1.3-.65 2.58-1.36 3.81-2.11.91-.56 1.81-1.15 2.69-1.77l11.5 10.33c3.41 3.06 8.62 2.92 11.86-.32 3.49-3.49 3.34-9.2-.33-12.5l-10.83-9.74zm-2.19-28.64c0 10.7-4.35 20.39-11.36 27.4s-16.7 11.35-27.38 11.36-.03 0-.03 0h-.02c-10.7 0-20.39-4.34-27.4-11.35s-11.35-16.7-11.36-27.38v-.05c0-10.7 4.35-20.4 11.36-27.4 7.01-7.01 16.7-11.35 27.38-11.36s.03 0 .03 0h.02c10.7 0 20.39 4.34 27.4 11.36 7.01 7.01 11.35 16.7 11.36 27.38v.05z" />
</svg>